<?xml version="1.0" encoding="UTF-8"?>
<svg viewBox="0 0 20 20" version="1.1" xmlns="http://www.w3.org/2000/svg" xmlns:xlink="http://www.w3.org/1999/xlink">
    <!-- Generator: Sketch 49.3 (51167) - http://www.bohemiancoding.com/sketch -->
    <title>Group</title>
    <desc>Created with Sketch.</desc>
    <defs></defs>
    <g id="Symbols" stroke="none" stroke-width="1" fill="none" fill-rule="evenodd" opacity="0.600000024">
        <g id="footer" transform="translate(-1142.000000, -161.000000)">
            <g id="Group-2">
                <g>
                    <g transform="translate(980.000000, 159.000000)">
                        <g id="Group" transform="translate(162.000000, 2.000000)">
                            <path d="M17.8284,9.05921569 L17.8284,9.02901961 C17.822,9.03921569 17.8152,9.04941176 17.8084,9.05921569 L17.8284,9.05921569 L17.8284,9.05921569 Z" id="Shape" fill="#000"></path>
                            <path d="M18.506,0.261568627 L1.658,0.261568627 C0.8516,0.261568627 0.1976,0.88745098 0.1976,1.65882353 L0.1976,18.3698039 C0.1976,19.1407843 0.8516,19.7666667 1.658,19.7666667 L18.506,19.7666667 C19.3136,19.7666667 19.9676,19.1403922 19.9676,18.3698039 L19.9676,1.65882353 C19.9676,0.887058824 19.3132,0.261568627 18.506,0.261568627 L18.506,0.261568627 Z M6.19,16.5898039 L3.204,16.5898039 L3.204,7.78235294 L6.19,7.78235294 L6.19,16.5898039 L6.19,16.5898039 Z M4.6972,6.57921569 L4.6772,6.57921569 C3.6756,6.57921569 3.0276,5.9027451 3.0276,5.05764706 C3.0276,4.19372549 3.6956,3.53607843 4.7168,3.53607843 C5.7384,3.53607843 6.3668,4.19372549 6.3868,5.05764706 C6.3868,5.9027451 5.738,6.57921569 4.6972,6.57921569 L4.6972,6.57921569 Z M16.9576,16.5898039 L13.9716,16.5898039 L13.9716,11.8768627 C13.9716,10.6933333 13.5396,9.8854902 12.4592,9.8854902 C11.6344,9.8854902 11.1432,10.4301961 10.9268,10.9564706 C10.848,11.1443137 10.8288,11.4070588 10.8288,11.6705882 L10.8288,16.5894118 L7.8428,16.5894118 C7.8428,16.5894118 7.882,8.60745098 7.8428,7.78196078 L10.8288,7.78196078 L10.8288,9.02862745 C11.2256,8.42862745 11.9352,7.57411765 13.5204,7.57411765 C15.4848,7.57411765 16.958,8.83333333 16.958,11.5388235 L16.958,16.5898039 L16.9576,16.5898039 Z" id="Shape" fill="#000"></path>
                        </g>
                    </g>
                </g>
            </g>
        </g>
    </g>
</svg>