<?xml version="1.0" encoding="UTF-8"?><!DOCTYPE svg PUBLIC "-//W3C//DTD SVG 1.1//EN" "http://www.w3.org/Graphics/SVG/1.1/DTD/svg11.dtd"><svg xmlns="http://www.w3.org/2000/svg"><defs>
        <style>
            .cls-1{fill:#000;fill-rule:evenodd}
        </style>
    </defs><symbol id="icon-arrow-down" viewBox="0 0 284.929 284.929">
    <path d="M282.082 76.511l-14.274-14.273c-1.902-1.906-4.093-2.856-6.57-2.856-2.471 0-4.661.95-6.563 2.856L142.466 174.441 30.262 62.241c-1.903-1.906-4.093-2.856-6.567-2.856-2.475 0-4.665.95-6.567 2.856L2.856 76.515C.95 78.417 0 80.607 0 83.082c0 2.473.953 4.663 2.856 6.565l133.043 133.046c1.902 1.903 4.093 2.854 6.567 2.854s4.661-.951 6.562-2.854L282.082 89.647c1.902-1.903 2.847-4.093 2.847-6.565 0-2.475-.945-4.665-2.847-6.571z"/>
</symbol><symbol id="icon-arrow-left" viewBox="0 0 492 492">
    <path d="M198.608 246.104L382.664 62.04c5.068-5.056 7.856-11.816 7.856-19.024 0-7.212-2.788-13.968-7.856-19.032l-16.128-16.12C361.476 2.792 354.712 0 347.504 0s-13.964 2.792-19.028 7.864L109.328 227.008c-5.084 5.08-7.868 11.868-7.848 19.084-.02 7.248 2.76 14.028 7.848 19.112l218.944 218.932c5.064 5.072 11.82 7.864 19.032 7.864 7.208 0 13.964-2.792 19.032-7.864l16.124-16.12c10.492-10.492 10.492-27.572 0-38.06L198.608 246.104z"/>
</symbol><symbol id="icon-arrow-right" viewBox="0 0 492.004 492.004">
    <path d="M382.678 226.804L163.73 7.86C158.666 2.792 151.906 0 144.698 0s-13.968 2.792-19.032 7.86l-16.124 16.12c-10.492 10.504-10.492 27.576 0 38.064L293.398 245.9l-184.06 184.06c-5.064 5.068-7.86 11.824-7.86 19.028 0 7.212 2.796 13.968 7.86 19.04l16.124 16.116c5.068 5.068 11.824 7.86 19.032 7.86s13.968-2.792 19.032-7.86L382.678 265c5.076-5.084 7.864-11.872 7.848-19.088.016-7.244-2.772-14.028-7.848-19.108z"/>
</symbol><symbol id="icon-close" viewBox="0 0 348.333 348.334">
    <path d="M336.559 68.611L231.016 174.165l105.543 105.549c15.699 15.705 15.699 41.145 0 56.85-7.844 7.844-18.128 11.769-28.407 11.769-10.296 0-20.581-3.919-28.419-11.769L174.167 231.003 68.609 336.563c-7.843 7.844-18.128 11.769-28.416 11.769-10.285 0-20.563-3.919-28.413-11.769-15.699-15.698-15.699-41.139 0-56.85l105.54-105.549L11.774 68.611c-15.699-15.699-15.699-41.145 0-56.844 15.696-15.687 41.127-15.687 56.829 0l105.563 105.554L279.721 11.767c15.705-15.687 41.139-15.687 56.832 0 15.705 15.699 15.705 41.145.006 56.844z"/>
</symbol><symbol id="icon-download" viewBox="0 0 475.078 475.077">
    <path d="M467.083 318.627c-5.324-5.328-11.8-7.994-19.41-7.994H315.195l-38.828 38.827c-11.04 10.657-23.982 15.988-38.828 15.988-14.843 0-27.789-5.324-38.828-15.988l-38.543-38.827H27.408c-7.612 0-14.083 2.669-19.414 7.994C2.664 323.955 0 330.427 0 338.044v91.358c0 7.614 2.664 14.085 7.994 19.414 5.33 5.328 11.801 7.99 19.414 7.99h420.266c7.61 0 14.086-2.662 19.41-7.99 5.332-5.329 7.994-11.8 7.994-19.414v-91.358c0-7.617-2.662-14.089-7.995-19.417zm-107.058 96.214c-3.621 3.617-7.905 5.424-12.854 5.424s-9.227-1.807-12.847-5.424c-3.614-3.617-5.421-7.898-5.421-12.844 0-4.948 1.807-9.236 5.421-12.847 3.62-3.62 7.898-5.431 12.847-5.431s9.232 1.811 12.854 5.431c3.613 3.61 5.421 7.898 5.421 12.847 0 4.945-1.808 9.227-5.421 12.844zm73.084 0c-3.614 3.617-7.898 5.424-12.848 5.424-4.948 0-9.229-1.807-12.847-5.424-3.613-3.617-5.42-7.898-5.42-12.844 0-4.948 1.807-9.236 5.42-12.847 3.617-3.62 7.898-5.431 12.847-5.431s9.233 1.811 12.848 5.431c3.617 3.61 5.427 7.898 5.427 12.847 0 4.945-1.807 9.227-5.427 12.844z"/>
    <path d="M224.692 323.479c3.428 3.613 7.71 5.421 12.847 5.421 5.141 0 9.418-1.808 12.847-5.421l127.907-127.908c5.899-5.519 7.234-12.182 3.997-19.986-3.23-7.421-8.847-11.132-16.844-11.136h-73.091V36.543c0-4.948-1.811-9.231-5.421-12.847-3.62-3.617-7.901-5.426-12.847-5.426h-73.096c-4.946 0-9.229 1.809-12.847 5.426-3.615 3.616-5.424 7.898-5.424 12.847V164.45h-73.089c-7.998 0-13.61 3.715-16.846 11.136-3.234 7.801-1.903 14.467 3.999 19.986l127.908 127.907z"/>
</symbol><symbol id="icon-email-open" viewBox="0 0 516.375 516.375">
    <path d="M258.188 0L19.125 210.375v267.75c0 21.037 17.212 38.25 38.25 38.25H459c21.037 0 38.25-17.213 38.25-38.25v-267.75L258.188 0zm0 420.75L78.413 265.838l15.3-15.301 164.475 137.7 164.475-137.7 15.301 15.301L258.188 420.75z"/>
</symbol><symbol id="icon-fb-2" viewBox="0 0 22 22">
    
    <title>
        social_fb
    </title>
    <path class="cls-1" d="M20.78 0H1.22A1.22 1.22 0 0 0 0 1.22v19.56A1.22 1.22 0 0 0 1.22 22h10.53v-8.52H8.88v-3.32h2.87V7.71A4 4 0 0 1 16 3.33a23.67 23.67 0 0 1 2.56.13v3h-1.74c-1.38 0-1.64.65-1.64 1.61v2.12h3.28L18 13.48h-2.82V22h5.6A1.22 1.22 0 0 0 22 20.78V1.22A1.22 1.22 0 0 0 20.78 0"/>
</symbol><symbol id="icon-in-2" viewBox="0 0 20 20">
    <title>
        Group
    </title>
    <g fill-rule="evenodd" opacity=".6">
        <path d="M17.828 9.06v-.031a.795.795 0 0 1-.02.03h.02z"/>
        <path d="M18.506.262H1.658C.852.262.198.887.198 1.659v16.71c0 .772.654 1.398 1.46 1.398h16.848c.808 0 1.462-.627 1.462-1.397V1.659c0-.772-.655-1.397-1.462-1.397zM6.19 16.59H3.204V7.782H6.19v8.808zM4.697 6.58h-.02c-1.001 0-1.65-.677-1.65-1.522 0-.864.669-1.522 1.69-1.522s1.65.658 1.67 1.522c0 .845-.649 1.521-1.69 1.521zm12.26 10.01h-2.985v-4.713c0-1.184-.432-1.992-1.513-1.992-.825 0-1.316.545-1.532 1.071-.079.188-.098.451-.098.715v4.918H7.843s.039-7.982 0-8.807h2.986v1.247c.397-.6 1.106-1.455 2.691-1.455 1.965 0 3.438 1.26 3.438 3.965v5.05z"/>
    </g>
</symbol><symbol id="icon-phone" viewBox="0 0 401.998 401.998">
    <path d="M401.129 311.475c-1.137-3.426-8.371-8.473-21.697-15.129-3.61-2.098-8.754-4.949-15.41-8.566a1437.412 1437.412 0 0 1-18.13-9.996 605.612 605.612 0 0 1-15.276-8.846c-.76-.571-3.139-2.234-7.136-5-4.001-2.758-7.375-4.805-10.14-6.14-2.759-1.327-5.473-1.995-8.138-1.995-3.806 0-8.56 2.714-14.268 8.135a139.01 139.01 0 0 0-15.7 17.706c-4.757 6.379-9.802 12.275-15.126 17.7-5.332 5.427-9.713 8.138-13.135 8.138-1.718 0-3.86-.479-6.427-1.424-2.566-.951-4.518-1.766-5.858-2.423-1.328-.671-3.607-1.999-6.845-4.004-3.244-1.999-5.048-3.094-5.428-3.285-26.075-14.469-48.438-31.029-67.093-49.676-18.649-18.658-35.211-41.019-49.676-67.097-.19-.381-1.287-2.19-3.284-5.424-2-3.237-3.333-5.518-3.999-6.854-.666-1.331-1.475-3.283-2.425-5.852s-1.427-4.709-1.427-6.424c0-3.424 2.713-7.804 8.138-13.134 5.424-5.327 11.326-10.373 17.7-15.128a138.95 138.95 0 0 0 17.701-15.699c5.424-5.711 8.136-10.467 8.136-14.273 0-2.663-.666-5.378-1.997-8.137-1.332-2.765-3.378-6.139-6.139-10.138-2.762-3.997-4.427-6.374-4.999-7.139a627.13 627.13 0 0 1-8.848-15.271 1441.4 1441.4 0 0 1-9.995-18.131c-3.615-6.658-6.468-11.799-8.564-15.415C98.986 9.233 93.943 1.997 90.516.859 89.183.288 87.183 0 84.521 0c-5.142 0-11.85.95-20.129 2.856-8.282 1.903-14.799 3.899-19.558 5.996-9.517 3.995-19.604 15.605-30.264 34.826C4.863 61.566.01 79.271.01 96.78c0 5.135.333 10.131.999 14.989.666 4.853 1.856 10.326 3.571 16.418 1.712 6.09 3.093 10.614 4.137 13.56 1.045 2.948 2.996 8.229 5.852 15.845 2.852 7.614 4.567 12.275 5.138 13.988 6.661 18.654 14.56 35.307 23.695 49.964 15.03 24.362 35.541 49.539 61.521 75.521 25.981 25.98 51.153 46.49 75.517 61.526 14.655 9.134 31.314 17.032 49.965 23.698 1.714.568 6.375 2.279 13.986 5.141 7.614 2.854 12.897 4.805 15.845 5.852 2.949 1.048 7.474 2.43 13.559 4.145 6.098 1.715 11.566 2.905 16.419 3.576 4.856.657 9.853.996 14.989.996 17.508 0 35.214-4.856 53.105-14.562 19.219-10.656 30.826-20.745 34.823-30.269 2.102-4.754 4.093-11.273 5.996-19.555 1.909-8.278 2.857-14.985 2.857-20.126.006-2.673-.281-4.668-.855-6.012z"/>
</symbol><symbol id="icon-search" viewBox="0 0 410.23 410.23">
    <path d="M401.625 364.092l-107.1-107.1c19.125-26.775 30.6-59.288 30.6-93.713C325.125 73.391 252.45.717 162.563.717S0 73.392 0 163.279s72.675 162.562 162.562 162.562c34.425 0 66.938-11.475 93.713-30.6l107.1 107.1c9.562 9.562 26.775 9.562 38.25 0 11.475-11.474 11.475-26.775 0-38.249zm-239.063-76.5c-68.85 0-124.312-55.463-124.312-124.312 0-68.85 55.462-124.312 124.312-124.312S286.874 94.43 286.874 163.28c.001 68.849-55.462 124.312-124.312 124.312z"/>
</symbol><symbol id="icon-twitter" viewBox="0 0 510 510">
    <path d="M459 0H51C22.95 0 0 22.95 0 51v408c0 28.05 22.95 51 51 51h408c28.05 0 51-22.95 51-51V51c0-28.05-22.95-51-51-51zm-58.65 186.15c-2.55 117.3-76.5 198.9-188.7 204-45.9 2.55-79.05-12.75-109.65-30.6 33.15 5.101 76.5-7.649 99.45-28.05-33.15-2.55-53.55-20.4-63.75-48.45 10.2 2.55 20.4 0 28.05 0-30.6-10.2-51-28.05-53.55-68.85 7.65 5.1 17.85 7.65 28.05 7.65-22.95-12.75-38.25-61.2-20.4-91.8 33.15 35.7 73.95 66.3 140.25 71.4-17.85-71.4 79.051-109.65 117.301-61.2 17.85-2.55 30.6-10.2 43.35-15.3-5.1 17.85-15.3 28.05-28.05 38.25 12.75-2.55 25.5-5.1 35.7-10.2-2.551 12.75-15.301 22.95-28.051 33.15z"/>
</symbol></svg>